{
 "cells": [
  {
   "cell_type": "markdown",
   "id": "37788e3b",
   "metadata": {},
   "source": [
    "# Creation of the final video"
   ]
  },
  {
   "cell_type": "code",
   "execution_count": 1,
   "id": "31ecb6f2",
   "metadata": {},
   "outputs": [],
   "source": [
    "from pathlib import Path\n",
    "import subprocess\n",
    "import os"
   ]
  },
  {
   "cell_type": "code",
   "execution_count": 2,
   "id": "3d3d89d2",
   "metadata": {},
   "outputs": [],
   "source": [
    "VIDEO_NUMBER = \"5\"\n",
    "PROJECT_ROOT = Path().resolve().parent.parent\n",
    "INPUT_VIDEO_PATH = str(PROJECT_ROOT / \"data\" / f\"recording_{VIDEO_NUMBER}\" / f\"Tracked_output_{VIDEO_NUMBER}.mp4\")\n",
    "INPUT_VIDEO_LANE = str(PROJECT_ROOT / \"data\" / f\"recording_{VIDEO_NUMBER}\" / f\"Reconstructed_trajectory_deformed_{VIDEO_NUMBER}.mp4\")\n",
    "INPUT_VIDEO_SPHERE = str(PROJECT_ROOT / \"data\" / f\"recording_{VIDEO_NUMBER}\" / f\"Rotating_sphere.mp4\")\n",
    "\n",
    "OUTPUT_PATH = str(PROJECT_ROOT / \"data\" / f\"recording_{VIDEO_NUMBER}\" / f\"Final_{VIDEO_NUMBER}.mp4\")"
   ]
  },
  {
   "cell_type": "code",
   "execution_count": 3,
   "id": "5e9da915",
   "metadata": {},
   "outputs": [],
   "source": [
    "if os.path.exists(OUTPUT_PATH):\n",
    "        os.remove(OUTPUT_PATH)"
   ]
  },
  {
   "cell_type": "code",
   "execution_count": 4,
   "id": "72af2911",
   "metadata": {},
   "outputs": [
    {
     "name": "stderr",
     "output_type": "stream",
     "text": [
      "ffmpeg version 6.1.1-3ubuntu5 Copyright (c) 2000-2023 the FFmpeg developers\n",
      "  built with gcc 13 (Ubuntu 13.2.0-23ubuntu3)\n",
      "  configuration: --prefix=/usr --extra-version=3ubuntu5 --toolchain=hardened --libdir=/usr/lib/x86_64-linux-gnu --incdir=/usr/include/x86_64-linux-gnu --arch=amd64 --enable-gpl --disable-stripping --disable-omx --enable-gnutls --enable-libaom --enable-libass --enable-libbs2b --enable-libcaca --enable-libcdio --enable-libcodec2 --enable-libdav1d --enable-libflite --enable-libfontconfig --enable-libfreetype --enable-libfribidi --enable-libglslang --enable-libgme --enable-libgsm --enable-libharfbuzz --enable-libmp3lame --enable-libmysofa --enable-libopenjpeg --enable-libopenmpt --enable-libopus --enable-librubberband --enable-libshine --enable-libsnappy --enable-libsoxr --enable-libspeex --enable-libtheora --enable-libtwolame --enable-libvidstab --enable-libvorbis --enable-libvpx --enable-libwebp --enable-libx265 --enable-libxml2 --enable-libxvid --enable-libzimg --enable-openal --enable-opencl --enable-opengl --disable-sndio --enable-libvpl --disable-libmfx --enable-libdc1394 --enable-libdrm --enable-libiec61883 --enable-chromaprint --enable-frei0r --enable-ladspa --enable-libbluray --enable-libjack --enable-libpulse --enable-librabbitmq --enable-librist --enable-libsrt --enable-libssh --enable-libsvtav1 --enable-libx264 --enable-libzmq --enable-libzvbi --enable-lv2 --enable-sdl2 --enable-libplacebo --enable-librav1e --enable-pocketsphinx --enable-librsvg --enable-libjxl --enable-shared\n",
      "  libavutil      58. 29.100 / 58. 29.100\n",
      "  libavcodec     60. 31.102 / 60. 31.102\n",
      "  libavformat    60. 16.100 / 60. 16.100\n",
      "  libavdevice    60.  3.100 / 60.  3.100\n",
      "  libavfilter     9. 12.100 /  9. 12.100\n",
      "  libswscale      7.  5.100 /  7.  5.100\n",
      "  libswresample   4. 12.100 /  4. 12.100\n",
      "  libpostproc    57.  3.100 / 57.  3.100\n",
      "Input #0, mov,mp4,m4a,3gp,3g2,mj2, from '/home/davic/projects/IACV_project/bowling-analysis/data/recording_5/Reconstructed_trajectory_deformed_5.mp4':\n",
      "  Metadata:\n",
      "    major_brand     : isom\n",
      "    minor_version   : 512\n",
      "    compatible_brands: isomiso2mp41\n",
      "    encoder         : Lavf59.27.100\n",
      "  Duration: 00:00:05.17, start: 0.000000, bitrate: 1698 kb/s\n",
      "  Stream #0:0[0x1](und): Video: mpeg4 (Simple Profile) (mp4v / 0x7634706D), yuv420p, 684x2340 [SAR 1:1 DAR 19:65], 1695 kb/s, 30 fps, 30 tbr, 15360 tbn (default)\n",
      "    Metadata:\n",
      "      handler_name    : VideoHandler\n",
      "      vendor_id       : [0][0][0][0]\n",
      "Stream mapping:\n",
      "  Stream #0:0 -> #0:0 (mpeg4 (native) -> h264 (libx264))\n",
      "Press [q] to stop, [?] for help\n",
      "[libx264 @ 0x563084458580] using SAR=1026/1027\n",
      "[libx264 @ 0x563084458580] using cpu capabilities: MMX2 SSE2Fast SSSE3 SSE4.2 AVX FMA3 BMI2 AVX2\n",
      "[libx264 @ 0x563084458580] profile High, level 3.1, 4:2:0, 8-bit\n",
      "[libx264 @ 0x563084458580] 264 - core 164 r3108 31e19f9 - H.264/MPEG-4 AVC codec - Copyleft 2003-2023 - http://www.videolan.org/x264.html - options: cabac=1 ref=2 deblock=1:0:0 analyse=0x3:0x113 me=hex subme=6 psy=1 psy_rd=1.00:0.00 mixed_ref=1 me_range=16 chroma_me=1 trellis=1 8x8dct=1 cqm=0 deadzone=21,11 fast_pskip=1 chroma_qp_offset=-2 threads=18 lookahead_threads=3 sliced_threads=0 nr=0 decimate=1 interlaced=0 bluray_compat=0 constrained_intra=0 bframes=3 b_pyramid=2 b_adapt=1 b_bias=0 direct=1 weightb=1 open_gop=0 weightp=1 keyint=250 keyint_min=25 scenecut=40 intra_refresh=0 rc_lookahead=30 rc=crf mbtree=1 crf=18.0 qcomp=0.60 qpmin=0 qpmax=69 qpstep=4 ip_ratio=1.40 aq=1:1.00\n",
      "Output #0, mp4, to 'resized_right_video.mp4':\n",
      "  Metadata:\n",
      "    major_brand     : isom\n",
      "    minor_version   : 512\n",
      "    compatible_brands: isomiso2mp41\n",
      "    encoder         : Lavf60.16.100\n",
      "  Stream #0:0(und): Video: h264 (avc1 / 0x31637661), yuv420p(tv, progressive), 316x1080 [SAR 1026:1027 DAR 19:65], q=2-31, 30 fps, 15360 tbn (default)\n",
      "    Metadata:\n",
      "      handler_name    : VideoHandler\n",
      "      vendor_id       : [0][0][0][0]\n",
      "      encoder         : Lavc60.31.102 libx264\n",
      "    Side data:\n",
      "      cpb: bitrate max/min/avg: 0/0/0 buffer size: 0 vbv_delay: N/A\n",
      "[out#0/mp4 @ 0x56308443e300] video:36kB audio:0kB subtitle:0kB other streams:0kB global headers:0kB muxing overhead: 7.380822%\n",
      "frame=  155 fps=0.0 q=-1.0 Lsize=      38kB time=00:00:05.06 bitrate=  61.9kbits/s speed=10.5x    \n",
      "[libx264 @ 0x563084458580] frame I:1     Avg QP:15.66  size:  8346\n",
      "[libx264 @ 0x563084458580] frame P:49    Avg QP:14.50  size:   421\n",
      "[libx264 @ 0x563084458580] frame B:105   Avg QP:25.17  size:    65\n",
      "[libx264 @ 0x563084458580] consecutive B-frames:  6.5%  9.0%  1.9% 82.6%\n",
      "[libx264 @ 0x563084458580] mb I  I16..4: 43.6% 44.3% 12.1%\n",
      "[libx264 @ 0x563084458580] mb P  I16..4:  0.5%  1.0%  0.2%  P16..4:  2.6%  0.4%  0.2%  0.0%  0.0%    skip:95.2%\n",
      "[libx264 @ 0x563084458580] mb B  I16..4:  0.0%  0.0%  0.0%  B16..8:  0.8%  0.1%  0.0%  direct: 0.2%  skip:98.9%  L0:51.3% L1:47.8% BI: 0.9%\n",
      "[libx264 @ 0x563084458580] 8x8 transform intra:51.8% inter:62.6%\n",
      "[libx264 @ 0x563084458580] coded y,uvDC,uvAC intra: 16.3% 27.1% 19.9% inter: 0.2% 0.7% 0.2%\n",
      "[libx264 @ 0x563084458580] i16 v,h,dc,p: 52% 46%  1%  1%\n",
      "[libx264 @ 0x563084458580] i8 v,h,dc,ddl,ddr,vr,hd,vl,hu: 12% 17% 69%  0%  0%  0%  1%  0%  1%\n",
      "[libx264 @ 0x563084458580] i4 v,h,dc,ddl,ddr,vr,hd,vl,hu: 36% 35% 17%  2%  2%  2%  2%  2%  2%\n",
      "[libx264 @ 0x563084458580] i8c dc,h,v,p: 58% 23% 19%  0%\n",
      "[libx264 @ 0x563084458580] Weighted P-Frames: Y:0.0% UV:0.0%\n",
      "[libx264 @ 0x563084458580] ref P L0: 84.1% 15.9%\n",
      "[libx264 @ 0x563084458580] ref B L0: 92.1%  7.9%\n",
      "[libx264 @ 0x563084458580] ref B L1: 94.8%  5.2%\n",
      "[libx264 @ 0x563084458580] kb/s:55.45\n",
      "ffmpeg version 6.1.1-3ubuntu5 Copyright (c) 2000-2023 the FFmpeg developers\n",
      "  built with gcc 13 (Ubuntu 13.2.0-23ubuntu3)\n",
      "  configuration: --prefix=/usr --extra-version=3ubuntu5 --toolchain=hardened --libdir=/usr/lib/x86_64-linux-gnu --incdir=/usr/include/x86_64-linux-gnu --arch=amd64 --enable-gpl --disable-stripping --disable-omx --enable-gnutls --enable-libaom --enable-libass --enable-libbs2b --enable-libcaca --enable-libcdio --enable-libcodec2 --enable-libdav1d --enable-libflite --enable-libfontconfig --enable-libfreetype --enable-libfribidi --enable-libglslang --enable-libgme --enable-libgsm --enable-libharfbuzz --enable-libmp3lame --enable-libmysofa --enable-libopenjpeg --enable-libopenmpt --enable-libopus --enable-librubberband --enable-libshine --enable-libsnappy --enable-libsoxr --enable-libspeex --enable-libtheora --enable-libtwolame --enable-libvidstab --enable-libvorbis --enable-libvpx --enable-libwebp --enable-libx265 --enable-libxml2 --enable-libxvid --enable-libzimg --enable-openal --enable-opencl --enable-opengl --disable-sndio --enable-libvpl --disable-libmfx --enable-libdc1394 --enable-libdrm --enable-libiec61883 --enable-chromaprint --enable-frei0r --enable-ladspa --enable-libbluray --enable-libjack --enable-libpulse --enable-librabbitmq --enable-librist --enable-libsrt --enable-libssh --enable-libsvtav1 --enable-libx264 --enable-libzmq --enable-libzvbi --enable-lv2 --enable-sdl2 --enable-libplacebo --enable-librav1e --enable-pocketsphinx --enable-librsvg --enable-libjxl --enable-shared\n",
      "  libavutil      58. 29.100 / 58. 29.100\n",
      "  libavcodec     60. 31.102 / 60. 31.102\n",
      "  libavformat    60. 16.100 / 60. 16.100\n",
      "  libavdevice    60.  3.100 / 60.  3.100\n",
      "  libavfilter     9. 12.100 /  9. 12.100\n",
      "  libswscale      7.  5.100 /  7.  5.100\n",
      "  libswresample   4. 12.100 /  4. 12.100\n",
      "  libpostproc    57.  3.100 / 57.  3.100\n",
      "Input #0, mov,mp4,m4a,3gp,3g2,mj2, from 'resized_right_video.mp4':\n",
      "  Metadata:\n",
      "    major_brand     : isom\n",
      "    minor_version   : 512\n",
      "    compatible_brands: isomiso2avc1mp41\n",
      "    encoder         : Lavf60.16.100\n",
      "  Duration: 00:00:05.17, start: 0.000000, bitrate: 60 kb/s\n",
      "  Stream #0:0[0x1](und): Video: h264 (High) (avc1 / 0x31637661), yuv420p(progressive), 316x1080 [SAR 1026:1027 DAR 19:65], 56 kb/s, 30 fps, 30 tbr, 15360 tbn (default)\n",
      "    Metadata:\n",
      "      handler_name    : VideoHandler\n",
      "      vendor_id       : [0][0][0][0]\n",
      "      encoder         : Lavc60.31.102 libx264\n",
      "Stream mapping:\n",
      "  Stream #0:0 -> #0:0 (h264 (native) -> h264 (libx264))\n",
      "Press [q] to stop, [?] for help\n",
      "[libx264 @ 0x564b44ae9680] using SAR=1026/1027\n",
      "[libx264 @ 0x564b44ae9680] using cpu capabilities: MMX2 SSE2Fast SSSE3 SSE4.2 AVX FMA3 BMI2 AVX2\n",
      "[libx264 @ 0x564b44ae9680] profile High, level 3.1, 4:2:0, 8-bit\n",
      "[libx264 @ 0x564b44ae9680] 264 - core 164 r3108 31e19f9 - H.264/MPEG-4 AVC codec - Copyleft 2003-2023 - http://www.videolan.org/x264.html - options: cabac=1 ref=2 deblock=1:0:0 analyse=0x3:0x113 me=hex subme=6 psy=1 psy_rd=1.00:0.00 mixed_ref=1 me_range=16 chroma_me=1 trellis=1 8x8dct=1 cqm=0 deadzone=21,11 fast_pskip=1 chroma_qp_offset=-2 threads=18 lookahead_threads=3 sliced_threads=0 nr=0 decimate=1 interlaced=0 bluray_compat=0 constrained_intra=0 bframes=3 b_pyramid=2 b_adapt=1 b_bias=0 direct=1 weightb=1 open_gop=0 weightp=1 keyint=250 keyint_min=25 scenecut=40 intra_refresh=0 rc_lookahead=30 rc=crf mbtree=1 crf=18.0 qcomp=0.60 qpmin=0 qpmax=69 qpstep=4 ip_ratio=1.40 aq=1:1.00\n",
      "Output #0, mp4, to 'padded_right_video.mp4':\n",
      "  Metadata:\n",
      "    major_brand     : isom\n",
      "    minor_version   : 512\n",
      "    compatible_brands: isomiso2avc1mp41\n",
      "    encoder         : Lavf60.16.100\n",
      "  Stream #0:0(und): Video: h264 (avc1 / 0x31637661), yuv420p(progressive), 320x1080 [SAR 1026:1027 DAR 304:1027], q=2-31, 30 fps, 15360 tbn (default)\n",
      "    Metadata:\n",
      "      handler_name    : VideoHandler\n",
      "      vendor_id       : [0][0][0][0]\n",
      "      encoder         : Lavc60.31.102 libx264\n",
      "    Side data:\n",
      "      cpb: bitrate max/min/avg: 0/0/0 buffer size: 0 vbv_delay: N/A\n",
      "[out#0/mp4 @ 0x564b449e9040] video:40kB audio:0kB subtitle:0kB other streams:0kB global headers:0kB muxing overhead: 6.448262%\n",
      "frame=  155 fps=0.0 q=-1.0 Lsize=      43kB time=00:00:05.06 bitrate=  69.6kbits/s speed=19.4x    \n",
      "[libx264 @ 0x564b44ae9680] frame I:1     Avg QP:10.69  size:  8478\n",
      "[libx264 @ 0x564b44ae9680] frame P:50    Avg QP:14.84  size:   426\n",
      "[libx264 @ 0x564b44ae9680] frame B:104   Avg QP:15.57  size:   105\n",
      "[libx264 @ 0x564b44ae9680] consecutive B-frames:  9.0%  3.9%  1.9% 85.2%\n",
      "[libx264 @ 0x564b44ae9680] mb I  I16..4: 73.4% 14.5% 12.1%\n",
      "[libx264 @ 0x564b44ae9680] mb P  I16..4:  0.7%  0.2%  0.2%  P16..4:  3.4%  0.3%  0.2%  0.0%  0.0%    skip:95.0%\n",
      "[libx264 @ 0x564b44ae9680] mb B  I16..4:  0.0%  0.0%  0.0%  B16..8:  0.7%  0.1%  0.0%  direct: 1.6%  skip:97.7%  L0:51.8% L1:47.5% BI: 0.7%\n",
      "[libx264 @ 0x564b44ae9680] 8x8 transform intra:17.3% inter:56.6%\n",
      "[libx264 @ 0x564b44ae9680] coded y,uvDC,uvAC intra: 18.8% 33.4% 27.5% inter: 0.2% 1.9% 0.2%\n",
      "[libx264 @ 0x564b44ae9680] i16 v,h,dc,p: 64% 34%  1%  1%\n",
      "[libx264 @ 0x564b44ae9680] i8 v,h,dc,ddl,ddr,vr,hd,vl,hu: 29% 38% 28%  0%  0%  0%  1%  1%  1%\n",
      "[libx264 @ 0x564b44ae9680] i4 v,h,dc,ddl,ddr,vr,hd,vl,hu: 38% 33% 17%  2%  2%  2%  2%  2%  2%\n",
      "[libx264 @ 0x564b44ae9680] i8c dc,h,v,p: 50% 27% 22%  2%\n",
      "[libx264 @ 0x564b44ae9680] Weighted P-Frames: Y:0.0% UV:0.0%\n",
      "[libx264 @ 0x564b44ae9680] ref P L0: 82.0% 18.0%\n",
      "[libx264 @ 0x564b44ae9680] ref B L0: 96.0%  4.0%\n",
      "[libx264 @ 0x564b44ae9680] ref B L1: 97.9%  2.1%\n",
      "[libx264 @ 0x564b44ae9680] kb/s:63.02\n",
      "ffmpeg version 6.1.1-3ubuntu5 Copyright (c) 2000-2023 the FFmpeg developers\n",
      "  built with gcc 13 (Ubuntu 13.2.0-23ubuntu3)\n",
      "  configuration: --prefix=/usr --extra-version=3ubuntu5 --toolchain=hardened --libdir=/usr/lib/x86_64-linux-gnu --incdir=/usr/include/x86_64-linux-gnu --arch=amd64 --enable-gpl --disable-stripping --disable-omx --enable-gnutls --enable-libaom --enable-libass --enable-libbs2b --enable-libcaca --enable-libcdio --enable-libcodec2 --enable-libdav1d --enable-libflite --enable-libfontconfig --enable-libfreetype --enable-libfribidi --enable-libglslang --enable-libgme --enable-libgsm --enable-libharfbuzz --enable-libmp3lame --enable-libmysofa --enable-libopenjpeg --enable-libopenmpt --enable-libopus --enable-librubberband --enable-libshine --enable-libsnappy --enable-libsoxr --enable-libspeex --enable-libtheora --enable-libtwolame --enable-libvidstab --enable-libvorbis --enable-libvpx --enable-libwebp --enable-libx265 --enable-libxml2 --enable-libxvid --enable-libzimg --enable-openal --enable-opencl --enable-opengl --disable-sndio --enable-libvpl --disable-libmfx --enable-libdc1394 --enable-libdrm --enable-libiec61883 --enable-chromaprint --enable-frei0r --enable-ladspa --enable-libbluray --enable-libjack --enable-libpulse --enable-librabbitmq --enable-librist --enable-libsrt --enable-libssh --enable-libsvtav1 --enable-libx264 --enable-libzmq --enable-libzvbi --enable-lv2 --enable-sdl2 --enable-libplacebo --enable-librav1e --enable-pocketsphinx --enable-librsvg --enable-libjxl --enable-shared\n",
      "  libavutil      58. 29.100 / 58. 29.100\n",
      "  libavcodec     60. 31.102 / 60. 31.102\n",
      "  libavformat    60. 16.100 / 60. 16.100\n",
      "  libavdevice    60.  3.100 / 60.  3.100\n",
      "  libavfilter     9. 12.100 /  9. 12.100\n",
      "  libswscale      7.  5.100 /  7.  5.100\n",
      "  libswresample   4. 12.100 /  4. 12.100\n",
      "  libpostproc    57.  3.100 / 57.  3.100\n",
      "Input #0, mov,mp4,m4a,3gp,3g2,mj2, from '/home/davic/projects/IACV_project/bowling-analysis/data/recording_5/Rotating_sphere.mp4':\n",
      "  Metadata:\n",
      "    major_brand     : isom\n",
      "    minor_version   : 512\n",
      "    compatible_brands: isomiso2avc1mp41\n",
      "    title           : Rotating Sphere with Axis DF\n",
      "    encoder         : Lavf61.7.100\n",
      "  Duration: 00:00:08.60, start: 0.000000, bitrate: 93 kb/s\n",
      "  Stream #0:0[0x1](und): Video: h264 (High) (avc1 / 0x31637661), yuv420p(progressive), 300x300, 89 kb/s, 30 fps, 30 tbr, 15360 tbn (default)\n",
      "    Metadata:\n",
      "      handler_name    : VideoHandler\n",
      "      vendor_id       : [0][0][0][0]\n",
      "      encoder         : Lavc61.19.101 libx264\n",
      "Stream mapping:\n",
      "  Stream #0:0 -> #0:0 (h264 (native) -> h264 (libx264))\n",
      "Press [q] to stop, [?] for help\n",
      "[libx264 @ 0x55f0a7591480] using cpu capabilities: MMX2 SSE2Fast SSSE3 SSE4.2 AVX FMA3 BMI2 AVX2\n",
      "[libx264 @ 0x55f0a7591480] profile High, level 1.3, 4:2:0, 8-bit\n",
      "[libx264 @ 0x55f0a7591480] 264 - core 164 r3108 31e19f9 - H.264/MPEG-4 AVC codec - Copyleft 2003-2023 - http://www.videolan.org/x264.html - options: cabac=1 ref=2 deblock=1:0:0 analyse=0x3:0x113 me=hex subme=6 psy=1 psy_rd=1.00:0.00 mixed_ref=1 me_range=16 chroma_me=1 trellis=1 8x8dct=1 cqm=0 deadzone=21,11 fast_pskip=1 chroma_qp_offset=-2 threads=9 lookahead_threads=1 sliced_threads=0 nr=0 decimate=1 interlaced=0 bluray_compat=0 constrained_intra=0 bframes=3 b_pyramid=2 b_adapt=1 b_bias=0 direct=1 weightb=1 open_gop=0 weightp=1 keyint=250 keyint_min=25 scenecut=40 intra_refresh=0 rc_lookahead=30 rc=crf mbtree=1 crf=18.0 qcomp=0.60 qpmin=0 qpmax=69 qpstep=4 ip_ratio=1.40 aq=1:1.00\n",
      "Output #0, mp4, to 'resized_sphere_video.mp4':\n",
      "  Metadata:\n",
      "    major_brand     : isom\n",
      "    minor_version   : 512\n",
      "    compatible_brands: isomiso2avc1mp41\n",
      "    title           : Rotating Sphere with Axis DF\n",
      "    encoder         : Lavf60.16.100\n",
      "  Stream #0:0(und): Video: h264 (avc1 / 0x31637661), yuv420p(progressive), 300x300, q=2-31, 30 fps, 15360 tbn (default)\n",
      "    Metadata:\n",
      "      handler_name    : VideoHandler\n",
      "      vendor_id       : [0][0][0][0]\n",
      "      encoder         : Lavc60.31.102 libx264\n",
      "    Side data:\n",
      "      cpb: bitrate max/min/avg: 0/0/0 buffer size: 0 vbv_delay: N/A\n",
      "[out#0/mp4 @ 0x55f0a74dd380] video:130kB audio:0kB subtitle:0kB other streams:0kB global headers:0kB muxing overhead: 3.018788%\n",
      "frame=  258 fps=0.0 q=-1.0 Lsize=     133kB time=00:00:08.50 bitrate= 128.6kbits/s speed=56.6x    \n",
      "[libx264 @ 0x55f0a7591480] frame I:2     Avg QP:10.62  size: 13230\n",
      "[libx264 @ 0x55f0a7591480] frame P:67    Avg QP:14.21  size:   953\n",
      "[libx264 @ 0x55f0a7591480] frame B:189   Avg QP:12.15  size:   220\n",
      "[libx264 @ 0x55f0a7591480] consecutive B-frames:  1.2%  3.1%  1.2% 94.6%\n",
      "[libx264 @ 0x55f0a7591480] mb I  I16..4: 57.2%  8.6% 34.2%\n",
      "[libx264 @ 0x55f0a7591480] mb P  I16..4:  1.8%  3.2%  1.5%  P16..4:  4.9%  1.6%  0.8%  0.0%  0.0%    skip:86.3%\n",
      "[libx264 @ 0x55f0a7591480] mb B  I16..4:  0.4%  0.5%  0.3%  B16..8:  5.0%  1.2%  0.3%  direct: 0.6%  skip:91.7%  L0:53.0% L1:43.9% BI: 3.1%\n",
      "[libx264 @ 0x55f0a7591480] 8x8 transform intra:38.5% inter:36.0%\n",
      "[libx264 @ 0x55f0a7591480] coded y,uvDC,uvAC intra: 58.6% 76.9% 39.8% inter: 1.4% 2.5% 0.8%\n",
      "[libx264 @ 0x55f0a7591480] i16 v,h,dc,p: 43% 21%  6% 30%\n",
      "[libx264 @ 0x55f0a7591480] i8 v,h,dc,ddl,ddr,vr,hd,vl,hu: 16% 14% 25% 14%  5%  3%  5%  9%  9%\n",
      "[libx264 @ 0x55f0a7591480] i4 v,h,dc,ddl,ddr,vr,hd,vl,hu: 32% 18% 22%  5%  4%  4%  5%  5%  4%\n",
      "[libx264 @ 0x55f0a7591480] i8c dc,h,v,p: 44% 27% 22%  7%\n",
      "[libx264 @ 0x55f0a7591480] Weighted P-Frames: Y:3.0% UV:3.0%\n",
      "[libx264 @ 0x55f0a7591480] ref P L0: 70.6% 29.4%\n",
      "[libx264 @ 0x55f0a7591480] ref B L0: 79.3% 20.7%\n",
      "[libx264 @ 0x55f0a7591480] ref B L1: 95.9%  4.1%\n",
      "[libx264 @ 0x55f0a7591480] kb/s:122.74\n",
      "ffmpeg version 6.1.1-3ubuntu5 Copyright (c) 2000-2023 the FFmpeg developers\n",
      "  built with gcc 13 (Ubuntu 13.2.0-23ubuntu3)\n",
      "  configuration: --prefix=/usr --extra-version=3ubuntu5 --toolchain=hardened --libdir=/usr/lib/x86_64-linux-gnu --incdir=/usr/include/x86_64-linux-gnu --arch=amd64 --enable-gpl --disable-stripping --disable-omx --enable-gnutls --enable-libaom --enable-libass --enable-libbs2b --enable-libcaca --enable-libcdio --enable-libcodec2 --enable-libdav1d --enable-libflite --enable-libfontconfig --enable-libfreetype --enable-libfribidi --enable-libglslang --enable-libgme --enable-libgsm --enable-libharfbuzz --enable-libmp3lame --enable-libmysofa --enable-libopenjpeg --enable-libopenmpt --enable-libopus --enable-librubberband --enable-libshine --enable-libsnappy --enable-libsoxr --enable-libspeex --enable-libtheora --enable-libtwolame --enable-libvidstab --enable-libvorbis --enable-libvpx --enable-libwebp --enable-libx265 --enable-libxml2 --enable-libxvid --enable-libzimg --enable-openal --enable-opencl --enable-opengl --disable-sndio --enable-libvpl --disable-libmfx --enable-libdc1394 --enable-libdrm --enable-libiec61883 --enable-chromaprint --enable-frei0r --enable-ladspa --enable-libbluray --enable-libjack --enable-libpulse --enable-librabbitmq --enable-librist --enable-libsrt --enable-libssh --enable-libsvtav1 --enable-libx264 --enable-libzmq --enable-libzvbi --enable-lv2 --enable-sdl2 --enable-libplacebo --enable-librav1e --enable-pocketsphinx --enable-librsvg --enable-libjxl --enable-shared\n",
      "  libavutil      58. 29.100 / 58. 29.100\n",
      "  libavcodec     60. 31.102 / 60. 31.102\n",
      "  libavformat    60. 16.100 / 60. 16.100\n",
      "  libavdevice    60.  3.100 / 60.  3.100\n",
      "  libavfilter     9. 12.100 /  9. 12.100\n",
      "  libswscale      7.  5.100 /  7.  5.100\n",
      "  libswresample   4. 12.100 /  4. 12.100\n",
      "  libpostproc    57.  3.100 / 57.  3.100\n",
      "Input #0, mov,mp4,m4a,3gp,3g2,mj2, from 'resized_sphere_video.mp4':\n",
      "  Metadata:\n",
      "    major_brand     : isom\n",
      "    minor_version   : 512\n",
      "    compatible_brands: isomiso2avc1mp41\n",
      "    title           : Rotating Sphere with Axis DF\n",
      "    encoder         : Lavf60.16.100\n",
      "  Duration: 00:00:08.60, start: 0.000000, bitrate: 127 kb/s\n",
      "  Stream #0:0[0x1](und): Video: h264 (High) (avc1 / 0x31637661), yuv420p(progressive), 300x300, 123 kb/s, 30 fps, 30 tbr, 15360 tbn (default)\n",
      "    Metadata:\n",
      "      handler_name    : VideoHandler\n",
      "      vendor_id       : [0][0][0][0]\n",
      "      encoder         : Lavc60.31.102 libx264\n",
      "Stream mapping:\n",
      "  Stream #0:0 -> #0:0 (h264 (native) -> h264 (libx264))\n",
      "Press [q] to stop, [?] for help\n",
      "[libx264 @ 0x555f60e8a240] using cpu capabilities: MMX2 SSE2Fast SSSE3 SSE4.2 AVX FMA3 BMI2 AVX2\n",
      "[libx264 @ 0x555f60e8a240] profile High, level 1.3, 4:2:0, 8-bit\n",
      "[libx264 @ 0x555f60e8a240] 264 - core 164 r3108 31e19f9 - H.264/MPEG-4 AVC codec - Copyleft 2003-2023 - http://www.videolan.org/x264.html - options: cabac=1 ref=2 deblock=1:0:0 analyse=0x3:0x113 me=hex subme=6 psy=1 psy_rd=1.00:0.00 mixed_ref=1 me_range=16 chroma_me=1 trellis=1 8x8dct=1 cqm=0 deadzone=21,11 fast_pskip=1 chroma_qp_offset=-2 threads=9 lookahead_threads=1 sliced_threads=0 nr=0 decimate=1 interlaced=0 bluray_compat=0 constrained_intra=0 bframes=3 b_pyramid=2 b_adapt=1 b_bias=0 direct=1 weightb=1 open_gop=0 weightp=1 keyint=250 keyint_min=25 scenecut=40 intra_refresh=0 rc_lookahead=30 rc=crf mbtree=1 crf=18.0 qcomp=0.60 qpmin=0 qpmax=69 qpstep=4 ip_ratio=1.40 aq=1:1.00\n",
      "Output #0, mp4, to 'padded_sphere_video.mp4':\n",
      "  Metadata:\n",
      "    major_brand     : isom\n",
      "    minor_version   : 512\n",
      "    compatible_brands: isomiso2avc1mp41\n",
      "    title           : Rotating Sphere with Axis DF\n",
      "    encoder         : Lavf60.16.100\n",
      "  Stream #0:0(und): Video: h264 (avc1 / 0x31637661), yuv420p(progressive), 304x304, q=2-31, 30 fps, 15360 tbn (default)\n",
      "    Metadata:\n",
      "      handler_name    : VideoHandler\n",
      "      vendor_id       : [0][0][0][0]\n",
      "      encoder         : Lavc60.31.102 libx264\n",
      "    Side data:\n",
      "      cpb: bitrate max/min/avg: 0/0/0 buffer size: 0 vbv_delay: N/A\n",
      "[out#0/mp4 @ 0x555f60dd4f80] video:138kB audio:0kB subtitle:0kB other streams:0kB global headers:0kB muxing overhead: 2.807333%\n",
      "frame=  258 fps=0.0 q=-1.0 Lsize=     142kB time=00:00:08.50 bitrate= 136.9kbits/s speed=50.5x    \n",
      "[libx264 @ 0x555f60e8a240] frame I:2     Avg QP:13.96  size: 14188\n",
      "[libx264 @ 0x555f60e8a240] frame P:68    Avg QP:19.49  size:   994\n",
      "[libx264 @ 0x555f60e8a240] frame B:188   Avg QP:25.46  size:   238\n",
      "[libx264 @ 0x555f60e8a240] consecutive B-frames:  1.2%  3.1%  5.8% 89.9%\n",
      "[libx264 @ 0x555f60e8a240] mb I  I16..4: 41.6% 19.1% 39.3%\n",
      "[libx264 @ 0x555f60e8a240] mb P  I16..4:  2.3%  2.6%  2.1%  P16..4:  6.5%  1.6%  0.8%  0.0%  0.0%    skip:84.0%\n",
      "[libx264 @ 0x555f60e8a240] mb B  I16..4:  0.8%  0.4%  0.4%  B16..8:  3.8%  1.4%  0.3%  direct: 0.9%  skip:91.9%  L0:49.0% L1:46.7% BI: 4.2%\n",
      "[libx264 @ 0x555f60e8a240] 8x8 transform intra:29.9% inter:21.2%\n",
      "[libx264 @ 0x555f60e8a240] coded y,uvDC,uvAC intra: 52.8% 72.5% 46.7% inter: 1.7% 3.7% 1.1%\n",
      "[libx264 @ 0x555f60e8a240] i16 v,h,dc,p: 24% 42%  6% 27%\n",
      "[libx264 @ 0x555f60e8a240] i8 v,h,dc,ddl,ddr,vr,hd,vl,hu: 20% 16% 29% 11%  3%  3%  3%  7%  9%\n",
      "[libx264 @ 0x555f60e8a240] i4 v,h,dc,ddl,ddr,vr,hd,vl,hu: 30% 19% 22%  5%  4%  5%  5%  5%  4%\n",
      "[libx264 @ 0x555f60e8a240] i8c dc,h,v,p: 36% 37% 21%  6%\n",
      "[libx264 @ 0x555f60e8a240] Weighted P-Frames: Y:2.9% UV:2.9%\n",
      "[libx264 @ 0x555f60e8a240] ref P L0: 74.7% 25.3%\n",
      "[libx264 @ 0x555f60e8a240] ref B L0: 84.1% 15.9%\n",
      "[libx264 @ 0x555f60e8a240] ref B L1: 94.1%  5.9%\n",
      "[libx264 @ 0x555f60e8a240] kb/s:130.94\n",
      "ffmpeg version 6.1.1-3ubuntu5 Copyright (c) 2000-2023 the FFmpeg developers\n",
      "  built with gcc 13 (Ubuntu 13.2.0-23ubuntu3)\n",
      "  configuration: --prefix=/usr --extra-version=3ubuntu5 --toolchain=hardened --libdir=/usr/lib/x86_64-linux-gnu --incdir=/usr/include/x86_64-linux-gnu --arch=amd64 --enable-gpl --disable-stripping --disable-omx --enable-gnutls --enable-libaom --enable-libass --enable-libbs2b --enable-libcaca --enable-libcdio --enable-libcodec2 --enable-libdav1d --enable-libflite --enable-libfontconfig --enable-libfreetype --enable-libfribidi --enable-libglslang --enable-libgme --enable-libgsm --enable-libharfbuzz --enable-libmp3lame --enable-libmysofa --enable-libopenjpeg --enable-libopenmpt --enable-libopus --enable-librubberband --enable-libshine --enable-libsnappy --enable-libsoxr --enable-libspeex --enable-libtheora --enable-libtwolame --enable-libvidstab --enable-libvorbis --enable-libvpx --enable-libwebp --enable-libx265 --enable-libxml2 --enable-libxvid --enable-libzimg --enable-openal --enable-opencl --enable-opengl --disable-sndio --enable-libvpl --disable-libmfx --enable-libdc1394 --enable-libdrm --enable-libiec61883 --enable-chromaprint --enable-frei0r --enable-ladspa --enable-libbluray --enable-libjack --enable-libpulse --enable-librabbitmq --enable-librist --enable-libsrt --enable-libssh --enable-libsvtav1 --enable-libx264 --enable-libzmq --enable-libzvbi --enable-lv2 --enable-sdl2 --enable-libplacebo --enable-librav1e --enable-pocketsphinx --enable-librsvg --enable-libjxl --enable-shared\n",
      "  libavutil      58. 29.100 / 58. 29.100\n",
      "  libavcodec     60. 31.102 / 60. 31.102\n",
      "  libavformat    60. 16.100 / 60. 16.100\n",
      "  libavdevice    60.  3.100 / 60.  3.100\n",
      "  libavfilter     9. 12.100 /  9. 12.100\n",
      "  libswscale      7.  5.100 /  7.  5.100\n",
      "  libswresample   4. 12.100 /  4. 12.100\n",
      "  libpostproc    57.  3.100 / 57.  3.100\n",
      "Input #0, mov,mp4,m4a,3gp,3g2,mj2, from '/home/davic/projects/IACV_project/bowling-analysis/data/recording_5/Tracked_output_5.mp4':\n",
      "  Metadata:\n",
      "    major_brand     : isom\n",
      "    minor_version   : 512\n",
      "    compatible_brands: isomiso2mp41\n",
      "    encoder         : Lavf59.27.100\n",
      "  Duration: 00:00:05.17, start: 0.000000, bitrate: 8502 kb/s\n",
      "  Stream #0:0[0x1](und): Video: mpeg4 (Simple Profile) (mp4v / 0x7634706D), yuv420p, 1920x1080 [SAR 1:1 DAR 16:9], 8499 kb/s, 30 fps, 30 tbr, 15360 tbn (default)\n",
      "    Metadata:\n",
      "      handler_name    : VideoHandler\n",
      "      vendor_id       : [0][0][0][0]\n",
      "Input #1, mov,mp4,m4a,3gp,3g2,mj2, from 'padded_sphere_video.mp4':\n",
      "  Metadata:\n",
      "    major_brand     : isom\n",
      "    minor_version   : 512\n",
      "    compatible_brands: isomiso2avc1mp41\n",
      "    title           : Rotating Sphere with Axis DF\n",
      "    encoder         : Lavf60.16.100\n",
      "  Duration: 00:00:08.60, start: 0.000000, bitrate: 135 kb/s\n",
      "  Stream #1:0[0x1](und): Video: h264 (High) (avc1 / 0x31637661), yuv420p(progressive), 304x304, 131 kb/s, 30 fps, 30 tbr, 15360 tbn (default)\n",
      "    Metadata:\n",
      "      handler_name    : VideoHandler\n",
      "      vendor_id       : [0][0][0][0]\n",
      "      encoder         : Lavc60.31.102 libx264\n",
      "Stream mapping:\n",
      "  Stream #0:0 (mpeg4) -> overlay\n",
      "  Stream #1:0 (h264) -> overlay\n",
      "  overlay:default -> Stream #0:0 (libx264)\n",
      "Press [q] to stop, [?] for help\n",
      "[libx264 @ 0x556cbfe871c0] using SAR=1/1\n",
      "[libx264 @ 0x556cbfe871c0] using cpu capabilities: MMX2 SSE2Fast SSSE3 SSE4.2 AVX FMA3 BMI2 AVX2\n",
      "[libx264 @ 0x556cbfe871c0] profile High, level 4.0, 4:2:0, 8-bit\n",
      "[libx264 @ 0x556cbfe871c0] 264 - core 164 r3108 31e19f9 - H.264/MPEG-4 AVC codec - Copyleft 2003-2023 - http://www.videolan.org/x264.html - options: cabac=1 ref=2 deblock=1:0:0 analyse=0x3:0x113 me=hex subme=6 psy=1 psy_rd=1.00:0.00 mixed_ref=1 me_range=16 chroma_me=1 trellis=1 8x8dct=1 cqm=0 deadzone=21,11 fast_pskip=1 chroma_qp_offset=-2 threads=18 lookahead_threads=3 sliced_threads=0 nr=0 decimate=1 interlaced=0 bluray_compat=0 constrained_intra=0 bframes=3 b_pyramid=2 b_adapt=1 b_bias=0 direct=1 weightb=1 open_gop=0 weightp=1 keyint=250 keyint_min=25 scenecut=40 intra_refresh=0 rc_lookahead=30 rc=crf mbtree=1 crf=18.0 qcomp=0.60 qpmin=0 qpmax=69 qpstep=4 ip_ratio=1.40 aq=1:1.00\n",
      "Output #0, mp4, to 'overlayed_left_video.mp4':\n",
      "  Metadata:\n",
      "    major_brand     : isom\n",
      "    minor_version   : 512\n",
      "    compatible_brands: isomiso2mp41\n",
      "    encoder         : Lavf60.16.100\n",
      "  Stream #0:0: Video: h264 (avc1 / 0x31637661), yuv420p(progressive), 1920x1080 [SAR 1:1 DAR 16:9], q=2-31, 30 fps, 15360 tbn\n",
      "    Metadata:\n",
      "      encoder         : Lavc60.31.102 libx264\n",
      "    Side data:\n",
      "      cpb: bitrate max/min/avg: 0/0/0 buffer size: 0 vbv_delay: N/A\n",
      "[out#0/mp4 @ 0x556cbfe85f40] video:4701kB audio:0kB subtitle:0kB other streams:0kB global headers:0kB muxing overhead: 0.078317%\n",
      "frame=  258 fps= 79 q=-1.0 Lsize=    4705kB time=00:00:08.50 bitrate=4534.2kbits/s speed= 2.6x    \n",
      "[libx264 @ 0x556cbfe871c0] frame I:2     Avg QP:14.39  size:173147\n",
      "[libx264 @ 0x556cbfe871c0] frame P:99    Avg QP:15.96  size: 34168\n",
      "[libx264 @ 0x556cbfe871c0] frame B:157   Avg QP:19.89  size:  6905\n",
      "[libx264 @ 0x556cbfe871c0] consecutive B-frames: 14.0% 10.9% 11.6% 63.6%\n",
      "[libx264 @ 0x556cbfe871c0] mb I  I16..4: 18.4% 70.6% 11.1%\n",
      "[libx264 @ 0x556cbfe871c0] mb P  I16..4:  2.0%  8.2%  0.8%  P16..4: 22.7%  9.0%  5.7%  0.0%  0.0%    skip:51.6%\n",
      "[libx264 @ 0x556cbfe871c0] mb B  I16..4:  0.5%  2.4%  0.1%  B16..8: 13.6%  3.1%  0.3%  direct: 2.0%  skip:78.1%  L0:53.4% L1:39.2% BI: 7.4%\n",
      "[libx264 @ 0x556cbfe871c0] 8x8 transform intra:75.4% inter:67.4%\n",
      "[libx264 @ 0x556cbfe871c0] coded y,uvDC,uvAC intra: 60.2% 71.9% 24.7% inter: 8.2% 8.2% 0.8%\n",
      "[libx264 @ 0x556cbfe871c0] i16 v,h,dc,p: 35% 26% 28% 11%\n",
      "[libx264 @ 0x556cbfe871c0] i8 v,h,dc,ddl,ddr,vr,hd,vl,hu: 25% 23% 31%  5%  2%  2%  2%  4%  4%\n",
      "[libx264 @ 0x556cbfe871c0] i4 v,h,dc,ddl,ddr,vr,hd,vl,hu: 35% 24% 14%  5%  4%  5%  4%  5%  4%\n",
      "[libx264 @ 0x556cbfe871c0] i8c dc,h,v,p: 40% 27% 25%  7%\n",
      "[libx264 @ 0x556cbfe871c0] Weighted P-Frames: Y:1.0% UV:0.0%\n",
      "[libx264 @ 0x556cbfe871c0] ref P L0: 80.1% 19.9%\n",
      "[libx264 @ 0x556cbfe871c0] ref B L0: 84.9% 15.1%\n",
      "[libx264 @ 0x556cbfe871c0] ref B L1: 93.4%  6.6%\n",
      "[libx264 @ 0x556cbfe871c0] kb/s:4477.29\n",
      "ffmpeg version 6.1.1-3ubuntu5 Copyright (c) 2000-2023 the FFmpeg developers\n",
      "  built with gcc 13 (Ubuntu 13.2.0-23ubuntu3)\n",
      "  configuration: --prefix=/usr --extra-version=3ubuntu5 --toolchain=hardened --libdir=/usr/lib/x86_64-linux-gnu --incdir=/usr/include/x86_64-linux-gnu --arch=amd64 --enable-gpl --disable-stripping --disable-omx --enable-gnutls --enable-libaom --enable-libass --enable-libbs2b --enable-libcaca --enable-libcdio --enable-libcodec2 --enable-libdav1d --enable-libflite --enable-libfontconfig --enable-libfreetype --enable-libfribidi --enable-libglslang --enable-libgme --enable-libgsm --enable-libharfbuzz --enable-libmp3lame --enable-libmysofa --enable-libopenjpeg --enable-libopenmpt --enable-libopus --enable-librubberband --enable-libshine --enable-libsnappy --enable-libsoxr --enable-libspeex --enable-libtheora --enable-libtwolame --enable-libvidstab --enable-libvorbis --enable-libvpx --enable-libwebp --enable-libx265 --enable-libxml2 --enable-libxvid --enable-libzimg --enable-openal --enable-opencl --enable-opengl --disable-sndio --enable-libvpl --disable-libmfx --enable-libdc1394 --enable-libdrm --enable-libiec61883 --enable-chromaprint --enable-frei0r --enable-ladspa --enable-libbluray --enable-libjack --enable-libpulse --enable-librabbitmq --enable-librist --enable-libsrt --enable-libssh --enable-libsvtav1 --enable-libx264 --enable-libzmq --enable-libzvbi --enable-lv2 --enable-sdl2 --enable-libplacebo --enable-librav1e --enable-pocketsphinx --enable-librsvg --enable-libjxl --enable-shared\n",
      "  libavutil      58. 29.100 / 58. 29.100\n",
      "  libavcodec     60. 31.102 / 60. 31.102\n",
      "  libavformat    60. 16.100 / 60. 16.100\n",
      "  libavdevice    60.  3.100 / 60.  3.100\n",
      "  libavfilter     9. 12.100 /  9. 12.100\n",
      "  libswscale      7.  5.100 /  7.  5.100\n",
      "  libswresample   4. 12.100 /  4. 12.100\n",
      "  libpostproc    57.  3.100 / 57.  3.100\n",
      "Input #0, mov,mp4,m4a,3gp,3g2,mj2, from 'overlayed_left_video.mp4':\n",
      "  Metadata:\n",
      "    major_brand     : isom\n",
      "    minor_version   : 512\n",
      "    compatible_brands: isomiso2avc1mp41\n",
      "    encoder         : Lavf60.16.100\n",
      "  Duration: 00:00:08.60, start: 0.000000, bitrate: 4481 kb/s\n",
      "  Stream #0:0[0x1](und): Video: h264 (High) (avc1 / 0x31637661), yuv420p(progressive), 1920x1080 [SAR 1:1 DAR 16:9], 4477 kb/s, 30 fps, 30 tbr, 15360 tbn (default)\n",
      "    Metadata:\n",
      "      handler_name    : VideoHandler\n",
      "      vendor_id       : [0][0][0][0]\n",
      "      encoder         : Lavc60.31.102 libx264\n",
      "Input #1, mov,mp4,m4a,3gp,3g2,mj2, from 'padded_right_video.mp4':\n",
      "  Metadata:\n",
      "    major_brand     : isom\n",
      "    minor_version   : 512\n",
      "    compatible_brands: isomiso2avc1mp41\n",
      "    encoder         : Lavf60.16.100\n",
      "  Duration: 00:00:05.17, start: 0.000000, bitrate: 68 kb/s\n",
      "  Stream #1:0[0x1](und): Video: h264 (High) (avc1 / 0x31637661), yuv420p(progressive), 320x1080 [SAR 1026:1027 DAR 304:1027], 64 kb/s, 30 fps, 30 tbr, 15360 tbn (default)\n",
      "    Metadata:\n",
      "      handler_name    : VideoHandler\n",
      "      vendor_id       : [0][0][0][0]\n",
      "      encoder         : Lavc60.31.102 libx264\n",
      "Stream mapping:\n",
      "  Stream #0:0 (h264) -> hstack\n",
      "  Stream #1:0 (h264) -> hstack\n",
      "  hstack:default -> Stream #0:0 (libx264)\n",
      "Press [q] to stop, [?] for help\n",
      "[libx264 @ 0x55eba34534c0] using SAR=1/1\n",
      "[libx264 @ 0x55eba34534c0] using cpu capabilities: MMX2 SSE2Fast SSSE3 SSE4.2 AVX FMA3 BMI2 AVX2\n",
      "[libx264 @ 0x55eba34534c0] profile High, level 5.0, 4:2:0, 8-bit\n",
      "[libx264 @ 0x55eba34534c0] 264 - core 164 r3108 31e19f9 - H.264/MPEG-4 AVC codec - Copyleft 2003-2023 - http://www.videolan.org/x264.html - options: cabac=1 ref=2 deblock=1:0:0 analyse=0x3:0x113 me=hex subme=6 psy=1 psy_rd=1.00:0.00 mixed_ref=1 me_range=16 chroma_me=1 trellis=1 8x8dct=1 cqm=0 deadzone=21,11 fast_pskip=1 chroma_qp_offset=-2 threads=18 lookahead_threads=3 sliced_threads=0 nr=0 decimate=1 interlaced=0 bluray_compat=0 constrained_intra=0 bframes=3 b_pyramid=2 b_adapt=1 b_bias=0 direct=1 weightb=1 open_gop=0 weightp=1 keyint=250 keyint_min=25 scenecut=40 intra_refresh=0 rc_lookahead=30 rc=crf mbtree=1 crf=18.0 qcomp=0.60 qpmin=0 qpmax=69 qpstep=4 ip_ratio=1.40 aq=1:1.00\n",
      "Output #0, mp4, to '/home/davic/projects/IACV_project/bowling-analysis/data/recording_5/Final_5.mp4':\n",
      "  Metadata:\n",
      "    major_brand     : isom\n",
      "    minor_version   : 512\n",
      "    compatible_brands: isomiso2avc1mp41\n",
      "    encoder         : Lavf60.16.100\n",
      "  Stream #0:0: Video: h264 (avc1 / 0x31637661), yuv420p(progressive), 2240x1080 [SAR 1:1 DAR 56:27], q=2-31, 30 fps, 15360 tbn\n",
      "    Metadata:\n",
      "      encoder         : Lavc60.31.102 libx264\n",
      "    Side data:\n",
      "      cpb: bitrate max/min/avg: 0/0/0 buffer size: 0 vbv_delay: N/A\n",
      "[out#0/mp4 @ 0x55eba3452240] video:4472kB audio:0kB subtitle:0kB other streams:0kB global headers:0kB muxing overhead: 0.085476%\n",
      "frame=  258 fps= 87 q=-1.0 Lsize=    4476kB time=00:00:08.50 bitrate=4313.4kbits/s speed=2.88x    \n",
      "[libx264 @ 0x55eba34534c0] frame I:2     Avg QP:14.00  size:184654\n",
      "[libx264 @ 0x55eba34534c0] frame P:84    Avg QP:15.80  size: 35086\n",
      "[libx264 @ 0x55eba34534c0] frame B:172   Avg QP:19.13  size:  7337\n",
      "[libx264 @ 0x55eba34534c0] consecutive B-frames:  5.0% 14.7% 10.5% 69.8%\n",
      "[libx264 @ 0x55eba34534c0] mb I  I16..4: 22.8% 65.5% 11.7%\n",
      "[libx264 @ 0x55eba34534c0] mb P  I16..4:  1.9%  7.5%  0.9%  P16..4: 20.2%  8.4%  4.9%  0.0%  0.0%    skip:56.3%\n",
      "[libx264 @ 0x55eba34534c0] mb B  I16..4:  0.6%  1.9%  0.1%  B16..8: 11.9%  3.1%  0.3%  direct: 2.3%  skip:79.9%  L0:53.1% L1:41.1% BI: 5.8%\n",
      "[libx264 @ 0x55eba34534c0] 8x8 transform intra:71.8% inter:60.5%\n",
      "[libx264 @ 0x55eba34534c0] coded y,uvDC,uvAC intra: 56.7% 71.6% 26.0% inter: 6.4% 8.3% 0.6%\n",
      "[libx264 @ 0x55eba34534c0] i16 v,h,dc,p: 36% 26% 24% 14%\n",
      "[libx264 @ 0x55eba34534c0] i8 v,h,dc,ddl,ddr,vr,hd,vl,hu: 26% 23% 26%  6%  3%  3%  3%  5%  5%\n",
      "[libx264 @ 0x55eba34534c0] i4 v,h,dc,ddl,ddr,vr,hd,vl,hu: 35% 24% 14%  5%  4%  4%  4%  5%  4%\n",
      "[libx264 @ 0x55eba34534c0] i8c dc,h,v,p: 40% 27% 25%  8%\n",
      "[libx264 @ 0x55eba34534c0] Weighted P-Frames: Y:2.4% UV:0.0%\n",
      "[libx264 @ 0x55eba34534c0] ref P L0: 79.0% 21.0%\n",
      "[libx264 @ 0x55eba34534c0] ref B L0: 85.8% 14.2%\n",
      "[libx264 @ 0x55eba34534c0] ref B L1: 95.2%  4.8%\n",
      "[libx264 @ 0x55eba34534c0] kb/s:4258.97\n"
     ]
    }
   ],
   "source": [
    "# Step 1: Get the height of the first video\n",
    "def get_video_height(video_path):\n",
    "    # Use ffprobe to get video dimensions\n",
    "    command = [\n",
    "        'ffprobe', \n",
    "        '-v', 'error', \n",
    "        '-select_streams', 'v:0', \n",
    "        '-show_entries', 'stream=height', \n",
    "        '-of', 'default=noprint_wrappers=1:nokey=1', \n",
    "        video_path\n",
    "    ]\n",
    "    result = subprocess.run(command, stdout=subprocess.PIPE, stderr=subprocess.PIPE)\n",
    "    height = int(result.stdout.decode().strip())\n",
    "    return height\n",
    "\n",
    "# Get the height of the first video (left video)\n",
    "left_video_height = get_video_height(INPUT_VIDEO_PATH)\n",
    "\n",
    "# Step 2: Resize the second video (right video) to match the height of the first video\n",
    "# Construct the ffmpeg command for resizing the second video\n",
    "resized_right_video = \"resized_right_video.mp4\"\n",
    "padded_right_video = \"padded_right_video.mp4\"\n",
    "resize_command = [\n",
    "    'ffmpeg', \n",
    "    '-i', INPUT_VIDEO_LANE, \n",
    "    '-vf', f\"scale=-1:{left_video_height}\",  # Preserve aspect ratio and set height\n",
    "    '-c:v', 'libx264', \n",
    "    '-preset', 'fast', \n",
    "    '-crf', '18', \n",
    "    resized_right_video\n",
    "]\n",
    "subprocess.run(resize_command, check=True)\n",
    "\n",
    "# Add a 5-pixel black border to the left\n",
    "pad_command = [\n",
    "    \"ffmpeg\",\n",
    "    \"-i\", str(resized_right_video),\n",
    "    \"-vf\", \"pad=width=iw+5:height=ih:x=5:y=0:color=black\",\n",
    "    \"-c:v\", \"libx264\",\n",
    "    \"-preset\", \"fast\",\n",
    "    \"-crf\", \"18\",\n",
    "    str(padded_right_video)\n",
    "]\n",
    "subprocess.run(pad_command, check=True)\n",
    "\n",
    "# Step 3: Resize the sphere video to a smaller size (you can adjust the size here)\n",
    "resized_sphere_video = \"resized_sphere_video.mp4\"\n",
    "padded_sphere_video = \"padded_sphere_video.mp4\"\n",
    "sphere_width = 300  # Set the desired width for the sphere video\n",
    "resize_sphere_command = [\n",
    "    'ffmpeg', \n",
    "    '-i', INPUT_VIDEO_SPHERE, \n",
    "    '-vf', f\"scale={sphere_width}:-1\",  # Adjust width, keep aspect ratio\n",
    "    '-c:v', 'libx264', \n",
    "    '-preset', 'fast', \n",
    "    '-crf', '18', \n",
    "    resized_sphere_video\n",
    "]\n",
    "subprocess.run(resize_sphere_command, check=True)\n",
    "\n",
    "# Add a 5-pixel black border around the entire video\n",
    "pad_command = [\n",
    "    \"ffmpeg\",\n",
    "    \"-i\", str(resized_sphere_video),\n",
    "    \"-vf\", \"pad=width=iw+5:height=ih+5:x=5:y=0:color=black\",\n",
    "    \"-c:v\", \"libx264\",\n",
    "    \"-preset\", \"fast\",\n",
    "    \"-crf\", \"18\",\n",
    "    str(padded_sphere_video)\n",
    "]\n",
    "subprocess.run(pad_command, check=True)\n",
    "\n",
    "# Step 4: Overlay the sphere video on the top-right corner of the left video\n",
    "# We will use ffmpeg's overlay filter to place the resized sphere video on top of the left video\n",
    "overlayed_left_video = \"overlayed_left_video.mp4\"\n",
    "overlay_command = [\n",
    "    'ffmpeg', \n",
    "    '-i', INPUT_VIDEO_PATH, \n",
    "    '-i', padded_sphere_video, \n",
    "    '-filter_complex', f\"[0:v][1:v]overlay=W-w-0:0\",  # Top-right corner, with 10px margin\n",
    "    '-c:v', 'libx264', \n",
    "    '-preset', 'fast', \n",
    "    '-crf', '18', \n",
    "    overlayed_left_video\n",
    "]\n",
    "subprocess.run(overlay_command, check=True)\n",
    "\n",
    "# Step 5: Combine the overlayed left video and the resized right video side by side\n",
    "combine_command = [\n",
    "    'ffmpeg', \n",
    "    '-i', overlayed_left_video, \n",
    "    '-i', padded_right_video, \n",
    "    '-filter_complex', \n",
    "    f\"[0:v][1:v]hstack=inputs=2\",  # Concatenate the videos side by side\n",
    "    '-c:v', 'libx264', \n",
    "    '-preset', 'fast', \n",
    "    '-crf', '18', \n",
    "    OUTPUT_PATH\n",
    "]\n",
    "subprocess.run(combine_command, check=True)\n",
    "\n",
    "# Clean up temporary files (optional)\n",
    "# Elimina i file se esistono\n",
    "for file_path in [resized_right_video, resized_sphere_video, overlayed_left_video, padded_sphere_video, padded_right_video]:\n",
    "    if os.path.exists(file_path):\n",
    "        os.remove(file_path)"
   ]
  }
 ],
 "metadata": {
  "kernelspec": {
   "display_name": ".venv",
   "language": "python",
   "name": "python3"
  },
  "language_info": {
   "codemirror_mode": {
    "name": "ipython",
    "version": 3
   },
   "file_extension": ".py",
   "mimetype": "text/x-python",
   "name": "python",
   "nbconvert_exporter": "python",
   "pygments_lexer": "ipython3",
   "version": "3.12.3"
  }
 },
 "nbformat": 4,
 "nbformat_minor": 5
}
